<svg id="svg5" width="3840" height="2160" version="1.1" viewBox="0 0 3840 2160" xmlns="http://www.w3.org/2000/svg" xmlns:xlink="http://www.w3.org/1999/xlink">
 <path id="path913" d="m1140 440.346 415.692 240v480l-415.692 240-415.692-240v-480z" fill="#5e378d"/>
 <path id="path15410" d="m1223.14 584.346-221.703 128 138.564 80 83.1387-48zm166.277 320-55.4257 32 55.4257 32zm-387.988 64.0039.016 256 166.272-96.0079-.01-128-55.4238 32.002z" fill="#302a62"/>
 <path id="path15424" d="m1140 536.346-304.84 176 304.84 176 304.842-176-83.1387-48-221.703 128-138.564-80 221.703-128zm-332.553 224v96l110.852 64v256l83.1367 48v-256l110.852 64.0001v-96.0001zm665.107 0-304.842 176v352l83.1387-48v-96l221.703-128zm-83.1387 144v64l-138.564 80.0001v-64.0001z" fill="#ffffff"/>
 <path id="path1370" d="m2715.69 640.346v560h120l.798-240h279.202v-320zm120 120h160v80h-160zm-640-120h440v120h-160v440h-120v-440h-160zm-480 1e-5h400v120h-280v320h280v120h-400z" fill="#342d2b" stroke-linecap="round" stroke-linejoin="round" stroke-width="32"/>
 <text id="text1525" x="1920" y="1686.4318" fill="#342d2b" font-family="'Comic Sans MS'" font-size="162px" stroke-linecap="round" stroke-linejoin="round" stroke-width="32" text-align="center" text-anchor="middle" xml:space="preserve"><tspan id="tspan1523" x="1920" y="1686.4318" fill="#342d2b" font-family="Consolas" font-size="162px">Challenge The Programming</tspan></text>
</svg>
