<svg xmlns="http://www.w3.org/2000/svg" xmlns:svg="http://www.w3.org/2000/svg" width="1024" height="1024" viewBox="0 0 1024 1024">
    <path style="fill:#5e378d;" d="m 498.83063,32 415.6922,240 V 752 L 498.83063,992 83.138439,752 V 272 Z"/>
    <path style="fill:#ffffff;" d="M 498.83008,128 193.99023,304 498.83008,480 803.67188,304 720.5332,256 498.83008,384 360.26562,304 581.96875,176 Z M 166.27734,352 v 96 l 110.85157,64 v 256 l 83.13671,48 V 560 l 110.85157,64 v -96 z m 665.10743,0 -304.8418,176 v 352 l 83.13867,-48 V 736 L 831.38477,608 Z m -83.13868,144 v 64 l -138.56445,80 v -64 z"/>
    <path style="fill:#302a62;" d="m 581.96875,176 -221.70313,128 138.56446,80 83.13867,-48 z m 166.27734,320 -55.42578,32 55.42578,32 z M 360.26562,560 V 816 L 526.54297,720 V 592 l -55.42578,32 z"/>
</svg>